<mxfile host="app.diagrams.net" agent="Mozilla/5.0 (Windows NT 10.0; Win64; x64) AppleWebKit/537.36 (KHTML, like Gecko) Chrome/131.0.0.0 Safari/537.36" version="26.0.5">
  <diagram name="Page-1" id="Fv8SI8NmVKUMyriCFnz9">
    <mxGraphModel dx="1706" dy="1011" grid="1" gridSize="10" guides="1" tooltips="1" connect="1" arrows="1" fold="1" page="1" pageScale="1" pageWidth="850" pageHeight="1100" math="0" shadow="0">
      <root>
        <mxCell id="0" />
        <mxCell id="1" parent="0" />
        <mxCell id="5xu8T9OT-neMtxeA3ggg-1" value="7 Shadows" style="whiteSpace=wrap;strokeWidth=2;" vertex="1" parent="1">
          <mxGeometry x="1110" y="314" width="170" height="90" as="geometry" />
        </mxCell>
        <mxCell id="5xu8T9OT-neMtxeA3ggg-2" value="7.1 Planar Shadows" style="whiteSpace=wrap;strokeWidth=2;" vertex="1" parent="1">
          <mxGeometry x="746.9999168473755" y="383.9975153703157" width="198" height="54" as="geometry" />
        </mxCell>
        <mxCell id="5xu8T9OT-neMtxeA3ggg-3" value="7.2 Shadows on Curved Surfaces" style="whiteSpace=wrap;strokeWidth=2;" vertex="1" parent="1">
          <mxGeometry x="730.0002833330118" y="473.99610015748067" width="260" height="78" as="geometry" />
        </mxCell>
        <mxCell id="5xu8T9OT-neMtxeA3ggg-4" value="7.3 Shadow Volumes" style="whiteSpace=wrap;strokeWidth=2;" vertex="1" parent="1">
          <mxGeometry x="1019.9982087159951" y="537.004282767635" width="205" height="54" as="geometry" />
        </mxCell>
        <mxCell id="5xu8T9OT-neMtxeA3ggg-5" value="7.4 Shadow Maps" style="whiteSpace=wrap;strokeWidth=2;" vertex="1" parent="1">
          <mxGeometry x="739.9983540610183" y="289.99590910566184" width="182" height="54" as="geometry" />
        </mxCell>
        <mxCell id="5xu8T9OT-neMtxeA3ggg-6" value="7.5 Percentage-Closer Filtering" style="whiteSpace=wrap;strokeWidth=2;" vertex="1" parent="1">
          <mxGeometry x="730.0007158330852" y="164.00434349889576" width="260" height="78" as="geometry" />
        </mxCell>
        <mxCell id="5xu8T9OT-neMtxeA3ggg-7" value="7.6 Percentage-Closer Soft Shadows" style="whiteSpace=wrap;strokeWidth=2;" vertex="1" parent="1">
          <mxGeometry x="969.9994559353702" y="47.99577667612243" width="260" height="78" as="geometry" />
        </mxCell>
        <mxCell id="5xu8T9OT-neMtxeA3ggg-8" value="7.7 Filtered Shadow Maps" style="whiteSpace=wrap;strokeWidth=2;" vertex="1" parent="1">
          <mxGeometry x="1440.0024484874568" y="59.999655571001455" width="243" height="54" as="geometry" />
        </mxCell>
        <mxCell id="5xu8T9OT-neMtxeA3ggg-9" value="7.8 Volumetric Shadow Techniques" style="whiteSpace=wrap;strokeWidth=2;" vertex="1" parent="1">
          <mxGeometry x="1450.0024706881902" y="220.0045002719128" width="260" height="78" as="geometry" />
        </mxCell>
        <mxCell id="5xu8T9OT-neMtxeA3ggg-10" value="7.9 Irregular Z-Buffer Shadows" style="whiteSpace=wrap;strokeWidth=2;" vertex="1" parent="1">
          <mxGeometry x="1580.0023027087482" y="409.9969048847192" width="260" height="78" as="geometry" />
        </mxCell>
        <mxCell id="5xu8T9OT-neMtxeA3ggg-11" value="7.10 Other Applications" style="whiteSpace=wrap;strokeWidth=2;" vertex="1" parent="1">
          <mxGeometry x="1290.004229035999" y="589.9963954355123" width="228" height="54" as="geometry" />
        </mxCell>
        <mxCell id="5xu8T9OT-neMtxeA3ggg-12" value="" style="curved=1;startArrow=none;endArrow=block;exitX=0;exitY=0.55;entryX=0.5;entryY=0;rounded=0;noEdgeStyle=1;" edge="1" parent="1" source="5xu8T9OT-neMtxeA3ggg-1" target="5xu8T9OT-neMtxeA3ggg-2">
          <mxGeometry relative="1" as="geometry">
            <Array as="points">
              <mxPoint x="960" y="350" />
            </Array>
          </mxGeometry>
        </mxCell>
        <mxCell id="5xu8T9OT-neMtxeA3ggg-13" value="" style="curved=1;startArrow=none;endArrow=block;exitX=0;exitY=0.57;entryX=0.5;entryY=0;rounded=0;noEdgeStyle=1;" edge="1" parent="1" source="5xu8T9OT-neMtxeA3ggg-1" target="5xu8T9OT-neMtxeA3ggg-3">
          <mxGeometry relative="1" as="geometry">
            <Array as="points">
              <mxPoint x="1020" y="450" />
            </Array>
          </mxGeometry>
        </mxCell>
        <mxCell id="5xu8T9OT-neMtxeA3ggg-14" value="" style="curved=1;startArrow=none;endArrow=block;exitX=0;exitY=0.6;entryX=0.5;entryY=0;rounded=0;noEdgeStyle=1;" edge="1" parent="1" source="5xu8T9OT-neMtxeA3ggg-1" target="5xu8T9OT-neMtxeA3ggg-4">
          <mxGeometry relative="1" as="geometry">
            <Array as="points">
              <mxPoint x="1090" y="480" />
            </Array>
          </mxGeometry>
        </mxCell>
        <mxCell id="5xu8T9OT-neMtxeA3ggg-15" value="" style="curved=1;startArrow=none;endArrow=block;exitX=0;exitY=0.65;entryX=0.5;entryY=0;rounded=0;noEdgeStyle=1;" edge="1" parent="1" source="5xu8T9OT-neMtxeA3ggg-1" target="5xu8T9OT-neMtxeA3ggg-5">
          <mxGeometry relative="1" as="geometry">
            <Array as="points">
              <mxPoint x="1000" y="260" />
            </Array>
          </mxGeometry>
        </mxCell>
        <mxCell id="5xu8T9OT-neMtxeA3ggg-16" value="" style="curved=1;startArrow=none;endArrow=block;exitX=0;exitY=0.92;entryX=0.5;entryY=0;rounded=0;noEdgeStyle=1;" edge="1" parent="1" source="5xu8T9OT-neMtxeA3ggg-1" target="5xu8T9OT-neMtxeA3ggg-6">
          <mxGeometry relative="1" as="geometry">
            <Array as="points">
              <mxPoint x="1090" y="120" />
            </Array>
          </mxGeometry>
        </mxCell>
        <mxCell id="5xu8T9OT-neMtxeA3ggg-17" value="" style="curved=1;startArrow=none;endArrow=block;exitX=1;exitY=0.92;entryX=0.5;entryY=0;rounded=0;noEdgeStyle=1;" edge="1" parent="1" source="5xu8T9OT-neMtxeA3ggg-1" target="5xu8T9OT-neMtxeA3ggg-7">
          <mxGeometry relative="1" as="geometry">
            <Array as="points">
              <mxPoint x="1400" />
            </Array>
          </mxGeometry>
        </mxCell>
        <mxCell id="5xu8T9OT-neMtxeA3ggg-18" value="" style="curved=1;startArrow=none;endArrow=block;exitX=1;exitY=0.64;entryX=0.5;entryY=0;rounded=0;noEdgeStyle=1;" edge="1" parent="1" source="5xu8T9OT-neMtxeA3ggg-1" target="5xu8T9OT-neMtxeA3ggg-8">
          <mxGeometry relative="1" as="geometry">
            <Array as="points">
              <mxPoint x="1320" y="-40" />
            </Array>
          </mxGeometry>
        </mxCell>
        <mxCell id="5xu8T9OT-neMtxeA3ggg-19" value="" style="curved=1;startArrow=none;endArrow=block;exitX=1;exitY=0.59;entryX=0.5;entryY=0;rounded=0;noEdgeStyle=1;" edge="1" parent="1" source="5xu8T9OT-neMtxeA3ggg-1" target="5xu8T9OT-neMtxeA3ggg-9">
          <mxGeometry relative="1" as="geometry">
            <Array as="points">
              <mxPoint x="1500" y="350" />
            </Array>
          </mxGeometry>
        </mxCell>
        <mxCell id="5xu8T9OT-neMtxeA3ggg-20" value="" style="curved=1;startArrow=none;endArrow=block;exitX=1;exitY=0.56;entryX=0.5;entryY=0;rounded=0;noEdgeStyle=1;" edge="1" parent="1" source="5xu8T9OT-neMtxeA3ggg-1" target="5xu8T9OT-neMtxeA3ggg-10">
          <mxGeometry relative="1" as="geometry">
            <Array as="points">
              <mxPoint x="1420" y="420" />
            </Array>
          </mxGeometry>
        </mxCell>
        <mxCell id="5xu8T9OT-neMtxeA3ggg-21" value="" style="curved=1;startArrow=none;endArrow=block;exitX=1;exitY=0.55;entryX=0.5;entryY=0;rounded=0;noEdgeStyle=1;" edge="1" parent="1" source="5xu8T9OT-neMtxeA3ggg-1" target="5xu8T9OT-neMtxeA3ggg-11">
          <mxGeometry relative="1" as="geometry">
            <Array as="points">
              <mxPoint x="1300" y="460" />
            </Array>
          </mxGeometry>
        </mxCell>
      </root>
    </mxGraphModel>
  </diagram>
</mxfile>
